<svg width="80" height="80" viewBox="0 0 80 80" fill="none" xmlns="http://www.w3.org/2000/svg">
<path d="M47.4062 11.8438C47.4894 11.526 47.6351 11.228 47.8349 10.9672C48.0347 10.7065 48.2845 10.4882 48.5698 10.3252C48.855 10.1622 49.1698 10.0578 49.4959 10.0181C49.822 9.97834 50.1527 10.0041 50.4688 10.0938C55.1291 11.3437 59.3786 13.7978 62.7904 17.2096C66.2022 20.6215 68.6563 24.8709 69.9062 29.5313C69.996 29.8473 70.0217 30.178 69.9819 30.5041C69.9422 30.8302 69.8378 31.1451 69.6748 31.4303C69.5118 31.7155 69.2936 31.9653 69.0328 32.1651C68.7721 32.3649 68.474 32.5106 68.1563 32.5938C67.943 32.6555 67.7221 32.6871 67.5 32.6875C66.9482 32.6843 66.413 32.4987 65.9777 32.1596C65.5425 31.8204 65.2317 31.3468 65.0938 30.8125C64.0541 27.0072 62.0402 23.5386 59.2508 20.7492C56.4614 17.9598 52.9929 15.9459 49.1875 14.9063C48.8669 14.8265 48.5655 14.6833 48.3013 14.485C48.0371 14.2866 47.8153 14.0373 47.6492 13.7517C47.4831 13.4661 47.376 13.1501 47.3343 12.8224C47.2926 12.4946 47.317 12.1619 47.4062 11.8438ZM46.5938 24.5625C48.709 25.1415 50.637 26.2616 52.1877 27.8123C53.7384 29.3631 54.8585 31.291 55.4375 33.4063C55.5705 33.9432 55.88 34.4199 56.3164 34.7599C56.7527 35.0999 57.2906 35.2835 57.8438 35.2813C58.0557 35.2833 58.2667 35.2517 58.4688 35.1875C58.7894 35.1078 59.0907 34.9645 59.3549 34.7662C59.6192 34.5679 59.8409 34.3185 60.007 34.033C60.1731 33.7474 60.2802 33.4314 60.322 33.1036C60.3637 32.7759 60.3392 32.4431 60.25 32.125C59.4608 29.1547 57.9006 26.4458 55.7274 24.2726C53.5542 22.0994 50.8453 20.5392 47.875 19.75C47.5489 19.6312 47.2016 19.5816 46.8553 19.6044C46.509 19.6271 46.1712 19.7218 45.8634 19.8822C45.5557 20.0427 45.2847 20.2655 45.0678 20.5364C44.8508 20.8073 44.6927 21.1204 44.6034 21.4558C44.5141 21.7912 44.4956 22.1415 44.5491 22.4844C44.6026 22.8274 44.727 23.1554 44.9142 23.4476C45.1014 23.7399 45.3475 23.9899 45.6366 24.1819C45.9258 24.3738 46.2517 24.5035 46.5938 24.5625ZM72.375 54.7188C71.8222 58.9388 69.7557 62.8145 66.5598 65.6253C63.3639 68.436 59.2561 69.9906 55 70C30.1875 70 10 49.8125 10 25C10.0094 20.744 11.564 16.6361 14.3748 13.4402C17.1855 10.2443 21.0612 8.17785 25.2813 7.62502C26.357 7.50575 27.4428 7.73224 28.3812 8.27166C29.3195 8.81108 30.0617 9.63538 30.5 10.625L36.7812 25.2813C37.1071 26.042 37.2377 26.8721 37.1613 27.6962C37.0849 28.5202 36.8039 29.3121 36.3438 30L31.1562 37.9375C33.5053 42.7047 37.3758 46.5532 42.1562 48.875L50 43.6563C50.6872 43.1931 51.4811 42.9127 52.3067 42.8416C53.1324 42.7705 53.9625 42.9111 54.7188 43.25L69.375 49.5C70.3646 49.9383 71.1889 50.6805 71.7284 51.6188C72.2678 52.5572 72.4943 53.643 72.375 54.7188ZM67.4062 54.0938L52.75 47.8438L44.9375 53.0625C44.2187 53.5377 43.3892 53.8191 42.5296 53.8794C41.6699 53.9396 40.8093 53.7766 40.0313 53.4063C34.2092 50.59 29.4998 45.9026 26.6563 40.0938C26.2813 39.3183 26.1131 38.4592 26.1679 37.5996C26.2226 36.74 26.4985 35.9091 26.9688 35.1875L32.1875 27.25L25.9063 12.5938C22.8905 12.9814 20.1194 14.4551 18.1119 16.7387C16.1043 19.0224 14.998 21.9594 15 25C15.0083 35.6061 19.2252 45.7755 26.7249 53.2752C34.2245 60.7748 44.3939 64.9917 55 65C58.0406 65.002 60.9777 63.8957 63.2613 61.8882C65.545 59.8806 67.0186 57.1096 67.4062 54.0938Z" fill="#119973"/>
</svg>
