<svg width="80" height="76" viewBox="0 0 80 76" fill="none" xmlns="http://www.w3.org/2000/svg">
<g clip-path="url(#clip0_9_118)">
<path d="M41.6364 28.6273V23.8364C43.1864 23.1788 44.7721 22.6856 46.3934 22.3568C48.0148 22.028 49.717 21.8636 51.5 21.8636C52.7212 21.8636 53.9189 21.9576 55.0932 22.1454C56.2674 22.3333 57.4182 22.5682 58.5454 22.85V27.3591C57.4182 26.9364 56.2787 26.6188 55.127 26.4065C53.9753 26.1942 52.7663 26.089 51.5 26.0909C49.7151 26.0909 48.0007 26.3145 46.3568 26.7616C44.7129 27.2088 43.1394 27.8307 41.6364 28.6273ZM41.6364 44.1273V39.3364C43.1864 38.6788 44.7721 38.1856 46.3934 37.8568C48.0148 37.528 49.717 37.3636 51.5 37.3636C52.7212 37.3636 53.9189 37.4576 55.0932 37.6454C56.2674 37.8333 57.4182 38.0682 58.5454 38.35V42.8591C57.4182 42.4363 56.2787 42.1188 55.127 41.9065C53.9753 41.6942 52.7663 41.589 51.5 41.5909C49.7151 41.5909 48.0007 41.8023 46.3568 42.225C44.7129 42.6477 43.1394 43.2818 41.6364 44.1273ZM41.6364 36.3773V31.5864C43.1864 30.9288 44.7721 30.4356 46.3934 30.1068C48.0148 29.778 49.717 29.6136 51.5 29.6136C52.7212 29.6136 53.9189 29.7076 55.0932 29.8954C56.2674 30.0833 57.4182 30.3182 58.5454 30.6V35.1091C57.4182 34.6864 56.2787 34.3688 55.127 34.1565C53.9753 33.9442 52.7663 33.839 51.5 33.8409C49.7151 33.8409 48.0007 34.0645 46.3568 34.5116C44.7129 34.9588 43.1394 35.5807 41.6364 36.3773ZM20.5 45.8182C22.7076 45.8182 24.8569 46.0652 26.948 46.5593C29.0391 47.0535 31.117 47.7928 33.1818 48.7773V21.0182C31.2561 19.8909 29.2129 19.0455 27.0523 18.4818C24.8917 17.9182 22.7076 17.6364 20.5 17.6364C18.8091 17.6364 17.1295 17.8008 15.4611 18.1295C13.7927 18.4583 12.1845 18.9515 10.6364 19.6091V47.5091C12.2803 46.9454 13.913 46.5227 15.5344 46.2409C17.1558 45.9591 18.811 45.8182 20.5 45.8182ZM38.8182 48.7773C40.8848 47.7909 42.9628 47.0506 45.052 46.5565C47.1412 46.0624 49.2905 45.8163 51.5 45.8182C53.1909 45.8182 54.847 45.9591 56.4684 46.2409C58.0898 46.5227 59.7216 46.9454 61.3636 47.5091V19.6091C59.8136 18.9515 58.2044 18.4583 56.5361 18.1295C54.8677 17.8008 53.189 17.6364 51.5 17.6364C49.2924 17.6364 47.1083 17.9182 44.9477 18.4818C42.7871 19.0455 40.7439 19.8909 38.8182 21.0182V48.7773ZM36 57.0909C33.7454 55.306 31.303 53.9204 28.6727 52.9341C26.0424 51.9477 23.3182 51.4545 20.5 51.4545C18.5273 51.4545 16.5893 51.7129 14.6861 52.2295C12.7829 52.7462 10.9633 53.4742 9.22727 54.4136C8.24091 54.9303 7.29024 54.9068 6.37527 54.3432C5.4603 53.7795 5.00188 52.9576 5 51.8773V17.9182C5 17.4015 5.12964 16.9083 5.38891 16.4386C5.64818 15.9689 6.03521 15.6167 6.55 15.3818C8.7106 14.2545 10.9652 13.4091 13.3136 12.8455C15.6621 12.2818 18.0576 12 20.5 12C23.2242 12 25.8902 12.3523 28.498 13.0568C31.1058 13.7614 33.6064 14.8182 36 16.2273C38.3954 14.8182 40.897 13.7614 43.5048 13.0568C46.1126 12.3523 48.7776 12 51.5 12C53.9424 12 56.3379 12.2818 58.6863 12.8455C61.0348 13.4091 63.2894 14.2545 65.45 15.3818C65.9667 15.6167 66.3546 15.9689 66.6139 16.4386C66.8732 16.9083 67.0019 17.4015 67 17.9182V51.8773C67 52.9576 66.5425 53.7795 65.6275 54.3432C64.7126 54.9068 63.761 54.9303 62.7727 54.4136C61.0348 53.4742 59.2152 52.7462 57.3139 52.2295C55.4126 51.7129 53.4746 51.4545 51.5 51.4545C48.6818 51.4545 45.9576 51.9477 43.3273 52.9341C40.697 53.9204 38.2545 55.306 36 57.0909Z" fill="#119973"/>
</g>
<defs>
<clipPath id="clip0_9_118">
<rect width="80" height="75.4286" fill="white"/>
</clipPath>
</defs>
</svg>
