<svg width="68" height="68" viewBox="0 0 68 68" fill="none" xmlns="http://www.w3.org/2000/svg">
<mask id="mask0_284_125" style="mask-type:luminance" maskUnits="userSpaceOnUse" x="0" y="0" width="68" height="68">
<path d="M65 46.7647C65 56.8361 58.0606 65 49.5 65C46.7255 65 44.1184 64.143 41.8647 62.6386C39.4779 61.047 37.4925 58.7392 36.1109 55.9507C34.7293 53.1621 34.0009 49.9924 34 46.7647C34 42.0819 35.5004 37.8112 37.9649 34.5835C39.4171 32.676 41.1952 31.1508 43.183 30.1075C45.1708 29.0642 47.3234 28.5265 49.5 28.5294C58.0606 28.5294 65 36.6934 65 46.7647Z" fill="#555555" stroke="white" stroke-width="5" stroke-linecap="round" stroke-linejoin="round"/>
<path d="M49.5 12.1174V28.5292C47.3234 28.5262 45.1708 29.064 43.183 30.1073C41.1952 31.1505 39.4171 32.6758 37.9649 34.5833C35.4072 37.9263 33.9944 42.2667 34 46.7645C34.0009 49.9922 34.7293 53.1619 36.1109 55.9504C37.4925 58.739 39.4779 61.0467 41.8647 62.6383C37.7386 64.1063 32.2609 64.9998 26.25 64.9998C13.4098 64.9998 3 60.9169 3 55.8821V12.1174" stroke="white" stroke-width="5" stroke-linecap="round" stroke-linejoin="round"/>
<path d="M49.5 12.1176C49.5 17.1524 39.0902 21.2353 26.25 21.2353C13.4098 21.2353 3 17.1524 3 12.1176C3 7.08288 13.4098 3 26.25 3C39.0902 3 49.5 7.08288 49.5 12.1176Z" fill="#555555" stroke="white" stroke-width="5" stroke-linecap="round" stroke-linejoin="round"/>
<path d="M3 41.294C3 46.3288 13.4098 50.4117 26.25 50.4117C29.0508 50.4117 31.737 50.2184 34.2232 49.861M3 26.7058C3 31.7406 13.4098 35.8235 26.25 35.8235C30.5218 35.8235 34.5254 35.3712 37.9649 34.5835M56.475 43.1176L47.95 53.147L43.3 47.6764" stroke="white" stroke-width="5" stroke-linecap="round" stroke-linejoin="round"/>
</mask>
<g mask="url(#mask0_284_125)">
<path d="M-3.19995 -9.76465H71.2001V77.7648H-3.19995V-9.76465Z" fill="#119973"/>
</g>
</svg>
